# xmcd CD database file
#
# Track frame offsets:
#	150
#	19378
#	31048
#	45041
#	57925
#	66589
#	80279
#	94047
#	108193
#	129786
#	134867
#	149812
#	164451
#	177874
#	189892
#	204963
#	219414
#	234279
#	248229
#	264838
#
# Disc length: 3723 seconds
#
# Revision: 4
# Processed by: cddbd v1.5.2PL0 Copyright (c) Steve Scherf et al.
# Submitted via: CDex 1.51
#
DISCID=0d0e8914
DTITLE=Various Artist - The History of Jazz ~ The Very Best of Swing, Bebop, Cool and Fusion  [CD 1-5]
DYEAR=2007
DGENRE=Jazz
TTITLE0=Louis Armstrong - When The Saints Go Marchin'In  (Mc Cravey)
TTITLE1=Bix Beiderbecke - Tiger Rag  (La Rocca)
TTITLE2=Bessie Smith - St. Louis Blues  (Handy)
TTITLE3=Eddie Lang - Eddie's Twister  (Land)
TTITLE4=Al Jolson - Swanee  (Gershwin - Caesar)
TTITLE5=Charlie Christian - Honeysuckle Rose  (Walter - Razaf)
TTITLE6=Sidney Bechet - Summertime  (Gershwin - Heyward - Gershwin)
TTITLE7=Fats Waller - Dinah  (Lewis - Young - Akst)
TTITLE8=George Gershwin - Rhapsody In Blue  (Gershwin)
TTITLE9=Joe Venuti - I Got Rhythm  (Gershwin - Gershwin)
TTITLE10=Django Reinhardt - Nuages  (Reinhardt)
TTITLE11=Cab Calloway - Minnie The Moocher  (Gaskill - Calloway - Mills)
TTITLE12=Gene Krupa - Drummin' Man  (Parham - Krupa)
TTITLE13=Ella Fitzgerald - A Tisket - A Tasket  (E.Fitzgerald - V.Alexander)
TTITLE14=Harry James - Laura  (Mercer - Raskin)
TTITLE15=Frank Sinatra - Stardust  (Carmichael - Parrish)
TTITLE16=Woody Herman - At The Woodchopper's Ball  (Bishop - Herman)
TTITLE17=Artie Shaw - Frenesi  (Dominguez)
TTITLE18=Billie Holiday - Fine And Mellow  (Holiday - Marks)
TTITLE19=Lionel Hampton - Flying Home  (Goodman - Hampton - Robin)
EXTD=YEAR: 2007
EXTT0=
EXTT1=
EXTT2=
EXTT3=
EXTT4=
EXTT5=
EXTT6=
EXTT7=
EXTT8=
EXTT9=
EXTT10=
EXTT11=
EXTT12=
EXTT13=
EXTT14=
EXTT15=
EXTT16=
EXTT17=
EXTT18=
EXTT19=
PLAYORDER=
